<?xml version="1.0" encoding="UTF-8"?><svg version="1.1" width="612px" height="792px" viewBox="0 0 612 792" xmlns="http://www.w3.org/2000/svg" xmlns:xlink="http://www.w3.org/1999/xlink" xmlns:cs="svg" xml:space="preserve"><style type="text/css">.ps04{fill-opacity:0.321;stroke-opacity:0.321;fill:#E9A506}.ps03{fill:#4A4A4A}.ps05{fill:#5F717D}.ps02{fill:#D8DDDF}.ps01{fill:#FFFFFF}.ps00{fill:none}.ps20 { letter-spacing: 0; word-spacing: 0; font-family: Century Gothic; font-size: 12px; font-weight: 600; } .ps22 { letter-spacing: 0; word-spacing: 0; font-family: Century Gothic; font-size: 13px; font-weight: 600; } .ps26 { letter-spacing: 0; word-spacing: 0; font-family: Century Gothic; font-size: 31px; font-weight: 600; } .ps21 { letter-spacing: 0; word-spacing: 0; font-family: Century Gothic; font-size: 12px; } .ps25 { letter-spacing: 0; word-spacing: 0; font-family: Century Gothic; font-size: 31px; } .ps23 { letter-spacing: 0; word-spacing: 0; font-family: Century Gothic; font-size: 12px; font-weight: 600; font-style:italic; } .ps24 { letter-spacing: 0; word-spacing: 0; font-family: Century Gothic; font-size: 12px; font-style:italic; }</style><clipPath id="clp1"><rect width="612" height="792" /></clipPath><g clip-path="url(#clp1)" transform="matrix(1 0 0 -1 0 792)"><g><g transform="matrix(1.342 0 0 1.342 0 0)"><clipPath id="clp2"><rect width="459" height="590.1" /></clipPath><g clip-path="url(#clp2)"><g><g transform="matrix(0.745 0 0 -0.745 0 590.142)"><g><clipPath id="clp3"><path d="M0 0 L616.11 0 L616.11 791.95 L0 791.95 Z" /></clipPath><g clip-path="url(#clp3)"><g class="ps00"><path d="M0 0 L616.11 0 L616.11 791.95 L0 791.95 Z" class="ps01" /></g></g></g><g><clipPath id="clp4"><path d="M18 142 L358 142 L358 791.95 L18 791.95 Z" /></clipPath><g clip-path="url(#clp4)"><g class="ps00"><clipPath id="clp5"><path d="M33.001 160 L333 160 L333 161 L33.001 161 Z" /></clipPath><g clip-path="url(#clp5)"><g class="ps00"><path d="M33.001 160 L333 160 L333 161 L33.001 161 Z" class="ps02" /></g></g></g><g class="ps00"><clipPath id="clp6"><path d="M33.001 330 L333 330 L333 331 L33.001 331 Z" /></clipPath><g clip-path="url(#clp6)"><g class="ps00"><path d="M33.001 330 L333 330 L333 331 L33.001 331 Z" class="ps02" /></g></g></g></g></g><g><clipPath id="clp7"><path d="M0 0 L616.11 0 L616.11 791.95 L0 791.95 Z" /></clipPath><g clip-path="url(#clp7)"><g class="ps00"><clipPath id="clp8"><path d="M388 160 L579 160 L579 161 L388 161 Z" /></clipPath><g clip-path="url(#clp8)"><g class="ps00"><path d="M388 160 L579 160 L579 161 L388 161 Z" class="ps02" /></g></g></g><g class="ps00"><clipPath id="clp9"><path d="M388 364 L579 364 L579 365 L388 365 Z" /></clipPath><g clip-path="url(#clp9)"><g class="ps00"><path d="M388 364 L579 364 L579 365 L388 365 Z" class="ps02" /></g></g></g><g class="ps00"><clipPath id="clp10"><path d="M27.999 100 L50 100 L50 123 L27.999 123 Z" /></clipPath><g clip-path="url(#clp10)"><g class="ps00"><text transform="matrix(1 0 0 1 33 116)"><tspan class="ps03 ps20" xml:space="preserve">E: </tspan></text></g></g></g><g class="ps00"><clipPath id="clp11"><path d="M40.001 100 L182 100 L182 123 L40.001 123 Z" /></clipPath><g clip-path="url(#clp11)"><g class="ps00"><text transform="matrix(1 0 0 1 45.6 116)"><tspan class="ps03 ps21" xml:space="preserve">lora.email@gmail.com</tspan></text></g></g></g><g class="ps00"><clipPath id="clp12"><path d="M173 100 L194 100 L194 123 L173 123 Z" /></clipPath><g clip-path="url(#clp12)"><g class="ps00"><text transform="matrix(1 0 0 1 178.987 116)"><tspan class="ps03 ps21">|</tspan></text></g></g></g><g class="ps00"><clipPath id="clp13"><path d="M188 100 L282 100 L282 123 L188 123 Z" /></clipPath><g clip-path="url(#clp13)"><g class="ps00"><text transform="matrix(1 0 0 1 193.05 116)"><tspan class="ps03 ps21" xml:space="preserve">(123) 456-7890</tspan></text></g></g></g><g class="ps00"><clipPath id="clp14"><path d="M276 100 L296 100 L296 123 L276 123 Z" /></clipPath><g clip-path="url(#clp14)"><g class="ps00"><text transform="matrix(1 0 0 1 281.387 116)"><tspan class="ps03 ps21">|</tspan></text></g></g></g><g class="ps00"><clipPath id="clp15"><path d="M290 100 L315 100 L315 123 L290 123 Z" /></clipPath><g clip-path="url(#clp15)"><g class="ps00"><text transform="matrix(1 0 0 1 295.450 116)"><tspan class="ps03 ps20" xml:space="preserve">A: </tspan></text></g></g></g><g class="ps00"><clipPath id="clp16"><path d="M305 100 L397 100 L397 123 L305 123 Z" /></clipPath><g clip-path="url(#clp16)"><g class="ps00"><text transform="matrix(1 0 0 1 310.687 116)"><tspan class="ps03 ps21" xml:space="preserve">New York City</tspan></text></g></g></g><g class="ps00"><clipPath id="clp17"><path d="M385 100 L401 100 L401 123 L385 123 Z" /></clipPath><g clip-path="url(#clp17)"><g class="ps00"><text transform="matrix(1 0 0 1 390.587 116)"><tspan class="ps03 ps21" xml:space="preserve">, </tspan></text></g></g></g><g class="ps00"><clipPath id="clp18"><path d="M391 100 L419 100 L419 123 L391 123 Z" /></clipPath><g clip-path="url(#clp18)"><g class="ps00"><text transform="matrix(1 0 0 1 396.912 116)"><tspan class="ps03 ps21" xml:space="preserve">NY</tspan></text></g></g></g><g class="ps00"><clipPath id="clp19"><path d="M410 100 L456 100 L456 123 L410 123 Z" /></clipPath><g clip-path="url(#clp19)"><g class="ps00"><text transform="matrix(1 0 0 1 415.887 116)"><tspan x="0,6.648,13.296" class="ps03 ps21" xml:space="preserve">00926</tspan></text></g></g></g></g></g><g><clipPath id="clp20"><path d="M18 142 L358 142 L358 791.95 L18 791.95 Z" /></clipPath><g clip-path="url(#clp20)"><g class="ps00"><clipPath id="clp21"><path d="M27.999 170 L209 170 L209 194 L27.999 194 Z" /></clipPath><g clip-path="url(#clp21)"><g class="ps00"><text transform="matrix(1 0 0 1 33 187)"><tspan class="ps03 ps22" xml:space="preserve">PROFESSIONAL SUMMARY</tspan></text></g></g></g><g class="ps00"><clipPath id="clp22"><path d="M27.999 200 L318 200 L318 223 L27.999 223 Z" /></clipPath><g clip-path="url(#clp22)"><g class="ps00"><text transform="matrix(1 0 0 1 33 216)"><tspan class="ps03 ps21" xml:space="preserve">Astute Business Operations Manager focused on</tspan></text></g></g></g><g class="ps00"><clipPath id="clp23"><path d="M27.999 217 L302 217 L302 240 L27.999 240 Z" /></clipPath><g clip-path="url(#clp23)"><g class="ps00"><text transform="matrix(1 0 0 1 33 233)"><tspan class="ps03 ps21" xml:space="preserve">supporting cross-functional teams to increase</tspan></text></g></g></g><g class="ps00"><clipPath id="clp24"><path d="M27.999 234 L258 234 L258 257 L27.999 257 Z" /></clipPath><g clip-path="url(#clp24)"><g class="ps00"><text transform="matrix(1 0 0 1 33 250)"><tspan class="ps03 ps21" xml:space="preserve">customer satisfaction through process</tspan></text></g></g></g><g class="ps00"><clipPath id="clp25"><path d="M27.999 251 L279 251 L279 274 L27.999 274 Z" /></clipPath><g clip-path="url(#clp25)"><g class="ps00"><text transform="matrix(1 0 0 1 33 267)"><tspan class="ps03 ps21" xml:space="preserve">improvements. Respectful and respected</tspan></text></g></g></g><g class="ps00"><clipPath id="clp26"><path d="M27.999 268 L291 268 L291 291 L27.999 291 Z" /></clipPath><g clip-path="url(#clp26)"><g class="ps00"><text transform="matrix(1 0 0 1 33 284)"><tspan class="ps03 ps21" xml:space="preserve">professional with exceptional knowledge of</tspan></text></g></g></g><g class="ps00"><clipPath id="clp27"><path d="M27.999 285 L326 285 L326 308 L27.999 308 Z" /></clipPath><g clip-path="url(#clp27)"><g class="ps00"><text transform="matrix(1 0 0 1 33 301)"><tspan class="ps03 ps21" xml:space="preserve">developing strategic plans for service excellence.</tspan></text></g></g></g><g class="ps00"><clipPath id="clp28"><path d="M27.999 340 L139 340 L139 364 L27.999 364 Z" /></clipPath><g clip-path="url(#clp28)"><g class="ps00"><text transform="matrix(1 0 0 1 33 357)"><tspan class="ps03 ps22" xml:space="preserve">WORK HISTORY</tspan></text></g></g></g><g class="ps00"><clipPath id="clp29"><path d="M27.999 371 L137 371 L137 394 L27.999 394 Z" /></clipPath><g clip-path="url(#clp29)"><g class="ps00"><text transform="matrix(1 0 0 1 33 387)"><tspan class="ps03 ps20" xml:space="preserve">Hotelements Inc.</tspan></text></g></g></g><g class="ps00"><clipPath id="clp30"><path d="M128 371 L145 371 L145 394 L128 394 Z" /></clipPath><g clip-path="url(#clp30)"><g class="ps00"><text transform="matrix(1 0 0 1 133.350 387)"><tspan class="ps03 ps21" xml:space="preserve">- </tspan></text></g></g></g><g class="ps00"><clipPath id="clp31"><path d="M135 370 L318 370 L318 393 L135 393 Z" /></clipPath><g clip-path="url(#clp31)"><g class="ps00"><text transform="matrix(1 0 0 1 140.337 387)"><tspan class="ps03 ps23" xml:space="preserve">Business Operations Manager</tspan></text></g></g></g><g class="ps00"><clipPath id="clp32"><path d="M27.999 388 L119 388 L119 411 L27.999 411 Z" /></clipPath><g clip-path="url(#clp32)"><g class="ps00"><text transform="matrix(1 0 0 1 33 404)"><tspan class="ps03 ps21" xml:space="preserve">San Francisco</tspan></text></g></g></g><g class="ps00"><clipPath id="clp33"><path d="M107 388 L124 388 L124 411 L107 411 Z" /></clipPath><g clip-path="url(#clp33)"><g class="ps00"><text transform="matrix(1 0 0 1 112.875 404)"><tspan class="ps03 ps21" xml:space="preserve">, </tspan></text></g></g></g><g class="ps00"><clipPath id="clp34"><path d="M114 388 L138 388 L138 411 L114 411 Z" /></clipPath><g clip-path="url(#clp34)"><g class="ps00"><text transform="matrix(1 0 0 1 119.2 404)"><tspan class="ps03 ps21" xml:space="preserve">TX</tspan></text></g></g></g><g class="ps00"><clipPath id="clp35"><path d="M27.999 405 L84.999 405 L84.999 428 L27.999 428 Z" /></clipPath><g clip-path="url(#clp35)"><g class="ps00"><text transform="matrix(1 0 0 1 33 421)"><tspan x="0,6.648" class="ps03 ps24" xml:space="preserve">12/2018</tspan></text></g></g></g><g class="ps00"><clipPath id="clp36"><path d="M73.002 405 L93 405 L93 428 L73.002 428 Z" /></clipPath><g clip-path="url(#clp36)"><g class="ps00"><text transform="matrix(1 0 0 1 78.15 421)"><tspan xml:space="preserve" class="ps03 ps24"> - </tspan></text></g></g></g><g class="ps00"><clipPath id="clp37"><path d="M83.001 405 L140 405 L140 428 L83.001 428 Z" /></clipPath><g clip-path="url(#clp37)"><g class="ps00"><text transform="matrix(1 0 0 1 88.137 421)"><tspan x="0,6.648" class="ps03 ps24" xml:space="preserve">06/2020</tspan></text></g></g></g><g class="ps00"><clipPath id="clp38"><path d="M27.999 609 L176 609 L176 632 L27.999 632 Z" /></clipPath><g clip-path="url(#clp38)"><g class="ps00"><text transform="matrix(1 0 0 1 33 625)"><tspan class="ps03 ps20" xml:space="preserve">ResortsandLodges.Com</tspan></text></g></g></g><g class="ps00"><clipPath id="clp39"><path d="M167 609 L184 609 L184 632 L167 632 Z" /></clipPath><g clip-path="url(#clp39)"><g class="ps00"><text transform="matrix(1 0 0 1 172.837 625)"><tspan class="ps03 ps21" xml:space="preserve">- </tspan></text></g></g></g><g class="ps00"><clipPath id="clp40"><path d="M174 608 L301 608 L301 631 L174 631 Z" /></clipPath><g clip-path="url(#clp40)"><g class="ps00"><text transform="matrix(1 0 0 1 179.825 625)"><tspan class="ps03 ps23" xml:space="preserve">Business Operations</tspan></text></g></g></g><g class="ps00"><clipPath id="clp41"><path d="M27.999 626 L93 626 L93 649 L27.999 649 Z" /></clipPath><g clip-path="url(#clp41)"><g class="ps00"><text transform="matrix(1 0 0 1 33 643)"><tspan class="ps03 ps23" xml:space="preserve">Manager</tspan></text></g></g></g><g class="ps00"><clipPath id="clp42"><path d="M27.999 643 L119 643 L119 666 L27.999 666 Z" /></clipPath><g clip-path="url(#clp42)"><g class="ps00"><text transform="matrix(1 0 0 1 33 659)"><tspan class="ps03 ps21" xml:space="preserve">San Francisco</tspan></text></g></g></g><g class="ps00"><clipPath id="clp43"><path d="M107 643 L124 643 L124 666 L107 666 Z" /></clipPath><g clip-path="url(#clp43)"><g class="ps00"><text transform="matrix(1 0 0 1 112.875 659)"><tspan class="ps03 ps21" xml:space="preserve">, </tspan></text></g></g></g><g class="ps00"><clipPath id="clp44"><path d="M114 643 L157 643 L157 666 L114 666 Z" /></clipPath><g clip-path="url(#clp44)"><g class="ps00"><text transform="matrix(1 0 0 1 119.2 659)"><tspan class="ps03 ps21" xml:space="preserve">Texas</tspan></text></g></g></g><g class="ps00"><clipPath id="clp45"><path d="M27.999 660 L84.999 660 L84.999 683 L27.999 683 Z" /></clipPath><g clip-path="url(#clp45)"><g class="ps00"><text transform="matrix(1 0 0 1 33 676)"><tspan x="0,6.648" class="ps03 ps24" xml:space="preserve">10/2018</tspan></text></g></g></g><g class="ps00"><clipPath id="clp46"><path d="M73.002 660 L93 660 L93 683 L73.002 683 Z" /></clipPath><g clip-path="url(#clp46)"><g class="ps00"><text transform="matrix(1 0 0 1 78.15 676)"><tspan xml:space="preserve" class="ps03 ps24"> - </tspan></text></g></g></g><g class="ps00"><clipPath id="clp47"><path d="M83.001 660 L140 660 L140 683 L83.001 683 Z" /></clipPath><g clip-path="url(#clp47)"><g class="ps00"><text transform="matrix(1 0 0 1 88.137 676)"><tspan x="0,6.648" class="ps03 ps24" xml:space="preserve">06/2020</tspan></text></g></g></g></g></g><g><clipPath id="clp48"><path d="M0 0 L616.11 0 L616.11 791.95 L0 791.95 Z" /></clipPath><g clip-path="url(#clp48)"><g class="ps00"><clipPath id="clp49"><path d="M383 170 L434 170 L434 194 L383 194 Z" /></clipPath><g clip-path="url(#clp49)"><g class="ps00"><text transform="matrix(1 0 0 1 388 187)"><tspan class="ps03 ps22" xml:space="preserve">SKILLS</tspan></text></g></g></g><g class="ps00"><clipPath id="clp50"><path d="M383 374 L473 374 L473 398 L383 398 Z" /></clipPath><g clip-path="url(#clp50)"><g class="ps00"><text transform="matrix(1 0 0 1 388 391)"><tspan class="ps03 ps22" xml:space="preserve">EDUCATION</tspan></text></g></g></g><g class="ps00"><clipPath id="clp51"><path d="M383 404 L569 404 L569 427 L383 427 Z" /></clipPath><g clip-path="url(#clp51)"><g class="ps00"><text transform="matrix(1 0 0 1 388 420)"><tspan class="ps03 ps20" xml:space="preserve">Texas A&amp;M University - Central</tspan></text></g></g></g><g class="ps00"><clipPath id="clp52"><path d="M383 421 L427 421 L427 444 L383 444 Z" /></clipPath><g clip-path="url(#clp52)"><g class="ps00"><text transform="matrix(1 0 0 1 388 437)"><tspan class="ps03 ps20" xml:space="preserve">Texas</tspan></text></g></g></g><g class="ps00"><clipPath id="clp53"><path d="M383 438 L432 438 L432 461 L383 461 Z" /></clipPath><g clip-path="url(#clp53)"><g class="ps00"><text transform="matrix(1 0 0 1 388 454)"><tspan class="ps03 ps21" xml:space="preserve">Killeen</tspan></text></g></g></g><g class="ps00"><clipPath id="clp54"><path d="M420 438 L436 438 L436 461 L420 461 Z" /></clipPath><g clip-path="url(#clp54)"><g class="ps00"><text transform="matrix(1 0 0 1 425.200 454)"><tspan class="ps03 ps21" xml:space="preserve">, </tspan></text></g></g></g><g class="ps00"><clipPath id="clp55"><path d="M426 438 L450 438 L450 461 L426 461 Z" /></clipPath><g clip-path="url(#clp55)"><g class="ps00"><text transform="matrix(1 0 0 1 431.524 454)"><tspan class="ps03 ps21" xml:space="preserve">TX</tspan></text></g></g></g><g class="ps00"><clipPath id="clp56"><path d="M383 455 L440 455 L440 478 L383 478 Z" /></clipPath><g clip-path="url(#clp56)"><g class="ps00"><text transform="matrix(1 0 0 1 388 471)"><tspan x="0,6.648" class="ps03 ps21" xml:space="preserve">06/2017</tspan></text></g></g></g><g class="ps00"><clipPath id="clp57"><path d="M383 477 L510 477 L510 500 L383 500 Z" /></clipPath><g clip-path="url(#clp57)"><g class="ps00"><text transform="matrix(1 0 0 1 388 494)"><tspan class="ps03 ps23" xml:space="preserve">Bachelor of Science</tspan></text></g></g></g><g class="ps00"><clipPath id="clp58"><path d="M501 478 L517 478 L517 501 L501 501 Z" /></clipPath><g clip-path="url(#clp58)"><g class="ps00"><text transform="matrix(1 0 0 1 506.975 494)"><tspan class="ps03 ps21">:</tspan></text></g></g></g><g class="ps00"><clipPath id="clp59"><path d="M383 495 L441 495 L441 518 L383 518 Z" /></clipPath><g clip-path="url(#clp59)"><g class="ps00"><text transform="matrix(1 0 0 1 388 511)"><tspan class="ps03 ps21" xml:space="preserve">Finance</tspan></text></g></g></g></g></g><g><clipPath id="clp60"><path d="M18 142 L358 142 L358 791.95 L18 791.95 Z" /></clipPath><g clip-path="url(#clp60)"><g class="ps00"><clipPath id="clp61"><path d="M41.003 428 L327 428 L327 451 L41.003 451 Z" /></clipPath><g clip-path="url(#clp61)"><g class="ps00"><text transform="matrix(1 0 0 1 46 444)"><tspan class="ps03 ps21" xml:space="preserve">Devised, deployed and monitored processes to</tspan></text></g></g></g><g class="ps00"><clipPath id="clp62"><path d="M41.003 445 L321 445 L321 468 L41.003 468 Z" /></clipPath><g clip-path="url(#clp62)"><g class="ps00"><text transform="matrix(1 0 0 1 46 461)"><tspan class="ps03 ps21" xml:space="preserve">boost long-term business success and increase</tspan></text></g></g></g><g class="ps00"><clipPath id="clp63"><path d="M41.003 462 L146 462 L146 485 L41.003 485 Z" /></clipPath><g clip-path="url(#clp63)"><g class="ps00"><text transform="matrix(1 0 0 1 46 478)"><tspan class="ps03 ps21" xml:space="preserve">profit levels 10%.</tspan></text></g></g></g><g class="ps00"><clipPath id="clp64"><path d="M27.999 428 L47.001 428 L47.001 451 L27.999 451 Z" /></clipPath><g clip-path="url(#clp64)"><g class="ps00"><text transform="matrix(1 0 0 1 33 444)"><tspan class="ps03 ps21">•</tspan></text></g></g></g><g class="ps00"><clipPath id="clp65"><path d="M41.003 479 L336 479 L336 502 L41.003 502 Z" /></clipPath><g clip-path="url(#clp65)"><g class="ps00"><text transform="matrix(1 0 0 1 46 495)"><tspan class="ps03 ps21" xml:space="preserve">Oversaw day-to-day business operations on sales</tspan></text></g></g></g><g class="ps00"><clipPath id="clp66"><path d="M41.003 496 L329 496 L329 519 L41.003 519 Z" /></clipPath><g clip-path="url(#clp66)"><g class="ps00"><text transform="matrix(1 0 0 1 46 512)"><tspan class="ps03 ps21" xml:space="preserve">floor by fostering deep professional relationships</tspan></text></g></g></g><g class="ps00"><clipPath id="clp67"><path d="M41.003 513 L284 513 L284 536 L41.003 536 Z" /></clipPath><g clip-path="url(#clp67)"><g class="ps00"><text transform="matrix(1 0 0 1 46 529)"><tspan class="ps03 ps21" xml:space="preserve">with wholesale contacts and customers.</tspan></text></g></g></g><g class="ps00"><clipPath id="clp68"><path d="M27.999 479 L47.001 479 L47.001 502 L27.999 502 Z" /></clipPath><g clip-path="url(#clp68)"><g class="ps00"><text transform="matrix(1 0 0 1 33 495)"><tspan class="ps03 ps21">•</tspan></text></g></g></g><g class="ps00"><clipPath id="clp69"><path d="M41.003 530 L334 530 L334 553 L41.003 553 Z" /></clipPath><g clip-path="url(#clp69)"><g class="ps00"><text transform="matrix(1 0 0 1 46 546)"><tspan class="ps03 ps21" xml:space="preserve">Developed and cultivated lucrative relationships</tspan></text></g></g></g><g class="ps00"><clipPath id="clp70"><path d="M41.003 547 L295 547 L295 570 L41.003 570 Z" /></clipPath><g clip-path="url(#clp70)"><g class="ps00"><text transform="matrix(1 0 0 1 46 563)"><tspan class="ps03 ps21" xml:space="preserve">with both new and existing clients through</tspan></text></g></g></g><g class="ps00"><clipPath id="clp71"><path d="M41.003 564 L291 564 L291 587 L41.003 587 Z" /></clipPath><g clip-path="url(#clp71)"><g class="ps00"><text transform="matrix(1 0 0 1 46 580)"><tspan class="ps03 ps21" xml:space="preserve">effective communication and exemplary</tspan></text></g></g></g><g class="ps00"><clipPath id="clp72"><path d="M41.003 581 L157.01 581 L157.01 604 L41.003 604 Z" /></clipPath><g clip-path="url(#clp72)"><g class="ps00"><text transform="matrix(1 0 0 1 46 597)"><tspan class="ps03 ps21" xml:space="preserve">interpersonal skills.</tspan></text></g></g></g><g class="ps00"><clipPath id="clp73"><path d="M27.999 530 L47.001 530 L47.001 553 L27.999 553 Z" /></clipPath><g clip-path="url(#clp73)"><g class="ps00"><text transform="matrix(1 0 0 1 33 546)"><tspan class="ps03 ps21">•</tspan></text></g></g></g><g class="ps00"><clipPath id="clp74"><path d="M41.003 683 L327 683 L327 706 L41.003 706 Z" /></clipPath><g clip-path="url(#clp74)"><g class="ps00"><text transform="matrix(1 0 0 1 46 699)"><tspan class="ps03 ps21" xml:space="preserve">Devised, deployed and monitored processes to</tspan></text></g></g></g><g class="ps00"><clipPath id="clp75"><path d="M41.003 700 L321 700 L321 723 L41.003 723 Z" /></clipPath><g clip-path="url(#clp75)"><g class="ps00"><text transform="matrix(1 0 0 1 46 716)"><tspan class="ps03 ps21" xml:space="preserve">boost long-term business success and increase</tspan></text></g></g></g><g class="ps00"><clipPath id="clp76"><path d="M41.003 717 L139 717 L139 740 L41.003 740 Z" /></clipPath><g clip-path="url(#clp76)"><g class="ps00"><text transform="matrix(1 0 0 1 46 733)"><tspan class="ps03 ps21" xml:space="preserve">profit levels 6%.</tspan></text></g></g></g><g class="ps00"><clipPath id="clp77"><path d="M27.999 683 L47.001 683 L47.001 706 L27.999 706 Z" /></clipPath><g clip-path="url(#clp77)"><g class="ps00"><text transform="matrix(1 0 0 1 33 699)"><tspan class="ps03 ps21">•</tspan></text></g></g></g><g class="ps00"><clipPath id="clp78"><path d="M41.003 734 L323 734 L323 757 L41.003 757 Z" /></clipPath><g clip-path="url(#clp78)"><g class="ps00"><text transform="matrix(1 0 0 1 46 750)"><tspan class="ps03 ps21" xml:space="preserve">Devised strategies to boost customer sales and</tspan></text></g></g></g><g class="ps00"><clipPath id="clp79"><path d="M41.003 751 L334 751 L334 774 L41.003 774 Z" /></clipPath><g clip-path="url(#clp79)"><g class="ps00"><text transform="matrix(1 0 0 1 46 767)"><tspan class="ps03 ps21" xml:space="preserve">drive referrals due to excellent service resulting in</tspan></text></g></g></g><g class="ps00"><clipPath id="clp80"><path d="M27.999 734 L47.001 734 L47.001 757 L27.999 757 Z" /></clipPath><g clip-path="url(#clp80)"><g class="ps00"><text transform="matrix(1 0 0 1 33 750)"><tspan class="ps03 ps21">•</tspan></text></g></g></g></g></g><g><clipPath id="clp81"><path d="M0 0 L616.11 0 L616.11 791.95 L0 791.95 Z" /></clipPath><g clip-path="url(#clp81)"><g class="ps00"><clipPath id="clp82"><path d="M396 200 L556 200 L556 223 L396 223 Z" /></clipPath><g clip-path="url(#clp82)"><g class="ps00"><text transform="matrix(1 0 0 1 401 216)"><tspan class="ps03 ps21" xml:space="preserve">Operations management</tspan></text></g></g></g><g class="ps00"><clipPath id="clp83"><path d="M383 200 L402 200 L402 223 L383 223 Z" /></clipPath><g clip-path="url(#clp83)"><g class="ps00"><text transform="matrix(1 0 0 1 388 216)"><tspan class="ps03 ps21">•</tspan></text></g></g></g><g class="ps00"><clipPath id="clp84"><path d="M396 217 L513 217 L513 240 L396 240 Z" /></clipPath><g clip-path="url(#clp84)"><g class="ps00"><text transform="matrix(1 0 0 1 401 233)"><tspan class="ps03 ps21" xml:space="preserve">Strategic Planning</tspan></text></g></g></g><g class="ps00"><clipPath id="clp85"><path d="M383 217 L402 217 L402 240 L383 240 Z" /></clipPath><g clip-path="url(#clp85)"><g class="ps00"><text transform="matrix(1 0 0 1 388 233)"><tspan class="ps03 ps21">•</tspan></text></g></g></g><g class="ps00"><clipPath id="clp86"><path d="M396 234 L507 234 L507 257 L396 257 Z" /></clipPath><g clip-path="url(#clp86)"><g class="ps00"><text transform="matrix(1 0 0 1 401 250)"><tspan class="ps03 ps21" xml:space="preserve">Business planning</tspan></text></g></g></g><g class="ps00"><clipPath id="clp87"><path d="M383 234 L402 234 L402 257 L383 257 Z" /></clipPath><g clip-path="url(#clp87)"><g class="ps00"><text transform="matrix(1 0 0 1 388 250)"><tspan class="ps03 ps21">•</tspan></text></g></g></g><g class="ps00"><clipPath id="clp88"><path d="M396 251 L517 251 L517 274 L396 274 Z" /></clipPath><g clip-path="url(#clp88)"><g class="ps00"><text transform="matrix(1 0 0 1 401 267)"><tspan class="ps03 ps21" xml:space="preserve">Staff Management</tspan></text></g></g></g><g class="ps00"><clipPath id="clp89"><path d="M383 251 L402 251 L402 274 L383 274 Z" /></clipPath><g clip-path="url(#clp89)"><g class="ps00"><text transform="matrix(1 0 0 1 388 267)"><tspan class="ps03 ps21">•</tspan></text></g></g></g><g class="ps00"><clipPath id="clp90"><path d="M396 268 L553 268 L553 291 L396 291 Z" /></clipPath><g clip-path="url(#clp90)"><g class="ps00"><text transform="matrix(1 0 0 1 401 284)"><tspan class="ps03 ps21" xml:space="preserve">Relationship building and</tspan></text></g></g></g><g class="ps00"><clipPath id="clp91"><path d="M396 285 L489 285 L489 308 L396 308 Z" /></clipPath><g clip-path="url(#clp91)"><g class="ps00"><text transform="matrix(1 0 0 1 401 301)"><tspan class="ps03 ps21" xml:space="preserve">management</tspan></text></g></g></g><g class="ps00"><clipPath id="clp92"><path d="M383 268 L402 268 L402 291 L383 291 Z" /></clipPath><g clip-path="url(#clp92)"><g class="ps00"><text transform="matrix(1 0 0 1 388 284)"><tspan class="ps03 ps21">•</tspan></text></g></g></g><g class="ps00"><clipPath id="clp93"><path d="M396 302 L536 302 L536 325 L396 325 Z" /></clipPath><g clip-path="url(#clp93)"><g class="ps00"><text transform="matrix(1 0 0 1 401 318)"><tspan class="ps03 ps21" xml:space="preserve">Business Development</tspan></text></g></g></g><g class="ps00"><clipPath id="clp94"><path d="M383 302 L402 302 L402 325 L383 325 Z" /></clipPath><g clip-path="url(#clp94)"><g class="ps00"><text transform="matrix(1 0 0 1 388 318)"><tspan class="ps03 ps21">•</tspan></text></g></g></g><g class="ps00"><clipPath id="clp95"><path d="M396 319 L532 319 L532 342 L396 342 Z" /></clipPath><g clip-path="url(#clp95)"><g class="ps00"><text transform="matrix(1 0 0 1 401 335)"><tspan x="0,7.092" class="ps03 ps21" xml:space="preserve">Process improvement</tspan></text></g></g></g><g class="ps00"><clipPath id="clp96"><path d="M383 319 L402 319 L402 342 L383 342 Z" /></clipPath><g clip-path="url(#clp96)"><g class="ps00"><text transform="matrix(1 0 0 1 388 335)"><tspan class="ps03 ps21">•</tspan></text></g></g></g></g></g><g><clipPath id="clp97"><path d="M18 0 L594 0 L594 98.002 L18 98.002 Z" /></clipPath><g clip-path="url(#clp97)"><g class="ps00"><path d="M18 0 L594 0 L594 98.002 L18 98.002 Z" class="ps04" /></g></g></g><g><clipPath id="clp98"><path d="M0 0 L616.11 0 L616.11 791.95 L0 791.95 Z" /></clipPath><g clip-path="url(#clp98)"><g class="ps00"><clipPath id="clp99"><path d="M27.999 45.999 L64 45.999 L64 91.999 L27.999 91.999 Z" /></clipPath><g clip-path="url(#clp99)"><g class="ps00"><text transform="matrix(1 0 0 1 33 81.5)"><tspan class="ps05 ps25">D</tspan></text></g></g></g><g class="ps00"><clipPath id="clp100"><path d="M51.998 45.999 L82 45.999 L82 91.999 L51.998 91.999 Z" /></clipPath><g clip-path="url(#clp100)"><g class="ps00"><text transform="matrix(1 0 0 1 57.062 81.5)"><tspan class="ps05 ps25">B</tspan></text></g></g></g><g class="ps00"><clipPath id="clp101"><path d="M84.999 45.999 L112 45.999 L112 91.999 L84.999 91.999 Z" /></clipPath><g clip-path="url(#clp101)"><g class="ps00"><text transform="matrix(1 0 0 1 90.862 81.5)"><tspan class="ps05 ps25">/</tspan></text></g></g></g><g class="ps00"><clipPath id="clp102"><path d="M115 45.999 L229 45.999 L229 91.999 L115 91.999 Z" /></clipPath><g clip-path="url(#clp102)"><g class="ps00"><text transform="matrix(1 0 0 1 120.412 81)"><tspan class="ps05 ps26" xml:space="preserve">DEBRA</tspan></text></g></g></g><g class="ps00"><clipPath id="clp103"><path d="M227 45.999 L397 45.999 L397 91.999 L227 91.999 Z" /></clipPath><g clip-path="url(#clp103)"><g class="ps00"><text transform="matrix(1 0 0 1 232.149 81)"><tspan class="ps05 ps26" xml:space="preserve">BRAMBILA</tspan></text></g></g></g></g></g></g></g></g></g></g></g></svg>